<?xml version="1.0" encoding="UTF-8" standalone="no"?>
<svg
   xmlns:dc="http://purl.org/dc/elements/1.1/"
   xmlns:cc="http://creativecommons.org/ns#"
   xmlns:rdf="http://www.w3.org/1999/02/22-rdf-syntax-ns#"
   xmlns:svg="http://www.w3.org/2000/svg"
   xmlns="http://www.w3.org/2000/svg"
   xmlns:sodipodi="http://sodipodi.sourceforge.net/DTD/sodipodi-0.dtd"
   xmlns:inkscape="http://www.inkscape.org/namespaces/inkscape"
   version="1.1"
   id="svg2"
   xml:space="preserve"
   width="581.08002"
   height="224.93333"
   viewBox="0 0 581.08002 224.93333"
   sodipodi:docname="google_play.eps"><metadata
     id="metadata8"><rdf:RDF><cc:Work
         rdf:about=""><dc:format>image/svg+xml</dc:format><dc:type
           rdf:resource="http://purl.org/dc/dcmitype/StillImage" /></cc:Work></rdf:RDF></metadata><defs
     id="defs6"><clipPath
       clipPathUnits="userSpaceOnUse"
       id="clipPath56"><path
         d="m 576.66,495.141 -2.086,2.007 c -8.176,8.653 -13.015,22.09 -13.015,39.5 v -4.097 0 621.829 c 0,0.05 0,0.1 0.004,0.16 -0.004,-0.06 -0.004,-0.12 -0.004,-0.17 v -4.11 c 0,18.85 5.64,33.05 15.078,41.56 L 924.988,843.465 576.66,495.141 m -15.097,659.409 c 0,1.68 0.05,3.33 0.14,4.93 -0.09,-1.6 -0.14,-3.25 -0.14,-4.93 m 0.144,4.97 c 0,0.03 0.004,0.07 0.008,0.11 -0.004,-0.04 -0.008,-0.08 -0.008,-0.11 m 0.012,0.2 c 0,0.03 0.004,0.05 0.004,0.07 0,-0.02 -0.004,-0.04 -0.004,-0.07 m 0.011,0.22 c 0,0.01 0,0.01 0,0.02 0,-0.01 0,-0.01 0,-0.02"
         id="path54" /></clipPath><linearGradient
       x1="0"
       y1="0"
       x2="1"
       y2="0"
       gradientUnits="userSpaceOnUse"
       gradientTransform="matrix(-471.863,-471.863,471.863,-471.863,894.098,1160.94)"
       spreadMethod="pad"
       id="linearGradient70"><stop
         style="stop-opacity:1;stop-color:#5797d7"
         offset="0"
         id="stop58" /><stop
         style="stop-opacity:1;stop-color:#5898d8"
         offset="0.00657445"
         id="stop60" /><stop
         style="stop-opacity:1;stop-color:#60bfee"
         offset="0.2601"
         id="stop62" /><stop
         style="stop-opacity:1;stop-color:#63cdf4"
         offset="0.5122"
         id="stop64" /><stop
         style="stop-opacity:1;stop-color:#6ccfec"
         offset="0.7604"
         id="stop66" /><stop
         style="stop-opacity:1;stop-color:#6fd0ea"
         offset="1"
         id="stop68" /></linearGradient><clipPath
       clipPathUnits="userSpaceOnUse"
       id="clipPath80"><path
         d="m 1041.09,723.195 v 0 l 2.65,1.508 137.57,78.168 c 12.66,7.195 21.24,15.863 25.74,25.055 -4.5,-9.199 -13.08,-17.871 -25.74,-25.071 l -137.57,-78.164 -2.65,-1.496 m 0.03,4.125 -116.132,116.145 116.132,116.144 140.19,-79.652 c 17.81,-10.117 27.8,-23.148 29.47,-36.469 0,-0.019 0,-0.039 0,-0.054 -1.67,-13.297 -11.66,-26.336 -29.47,-36.454 l -140.19,-79.66"
         id="path78" /></clipPath><linearGradient
       x1="0"
       y1="0"
       x2="1"
       y2="0"
       gradientUnits="userSpaceOnUse"
       gradientTransform="matrix(-680.333,1e-7,-1e-7,-680.333,1232.47,843.453)"
       spreadMethod="pad"
       id="linearGradient90"><stop
         style="stop-opacity:1;stop-color:#f9e105"
         offset="0"
         id="stop82" /><stop
         style="stop-opacity:1;stop-color:#fab60a"
         offset="0.4087"
         id="stop84" /><stop
         style="stop-opacity:1;stop-color:#f89b0f"
         offset="0.7754"
         id="stop86" /><stop
         style="stop-opacity:1;stop-color:#f79110"
         offset="1"
         id="stop88" /></linearGradient><clipPath
       clipPathUnits="userSpaceOnUse"
       id="clipPath100"><path
         d="m 601.492,481.879 c -9.726,0 -18.215,3.172 -24.836,9.141 l 0.012,0.011 c 6.621,-5.98 15.117,-9.152 24.852,-9.152 1.484,0 2.996,0.07 4.539,0.223 -1.551,-0.153 -3.075,-0.223 -4.567,-0.223 m 0.02,4.109 c -9.731,0 -18.223,3.172 -24.844,9.141 v 0 l -0.008,0.012 348.328,348.324 116.132,-116.145 v 0 L 633.004,495.43 c -11.289,-6.41 -21.984,-9.442 -31.492,-9.442 m -24.965,5.133 c -0.613,0.551 -1.207,1.129 -1.789,1.738 l 1.789,-1.738"
         id="path98" /></clipPath><linearGradient
       x1="0"
       y1="0"
       x2="1"
       y2="0"
       gradientUnits="userSpaceOnUse"
       gradientTransform="matrix(-639.884,-639.884,639.884,-639.884,979.213,778.936)"
       spreadMethod="pad"
       id="linearGradient106"><stop
         style="stop-opacity:1;stop-color:#ef2a43"
         offset="0"
         id="stop102" /><stop
         style="stop-opacity:1;stop-color:#c31362"
         offset="1"
         id="stop104" /></linearGradient><clipPath
       clipPathUnits="userSpaceOnUse"
       id="clipPath116"><path
         d="m 924.988,843.465 v 0 L 576.637,1191.82 c 6.613,5.97 15.097,9.13 24.82,9.13 9.527,0 20.238,-3.04 31.547,-9.46 L 1041.12,959.609 924.988,843.465 M 1043.74,962.227 633.004,1195.59 c -11.309,6.43 -22.024,9.47 -31.551,9.47 -0.078,0 -0.156,0 -0.238,0 0.094,0 0.183,0 0.277,0 9.512,0 20.215,-3.04 31.512,-9.45 L 1043.74,962.23"
         id="path114" /></clipPath><linearGradient
       x1="0"
       y1="0"
       x2="1"
       y2="0"
       gradientUnits="userSpaceOnUse"
       gradientTransform="matrix(285.735,-285.735,285.735,285.735,486.341,1400.87)"
       spreadMethod="pad"
       id="linearGradient128"><stop
         style="stop-opacity:1;stop-color:#3da56b"
         offset="0"
         id="stop118" /><stop
         style="stop-opacity:1;stop-color:#3cad6a"
         offset="0.0685"
         id="stop120" /><stop
         style="stop-opacity:1;stop-color:#4ebf65"
         offset="0.4762"
         id="stop122" /><stop
         style="stop-opacity:1;stop-color:#5ac35d"
         offset="0.8009"
         id="stop124" /><stop
         style="stop-opacity:1;stop-color:#60c55a"
         offset="1"
         id="stop126" /></linearGradient><clipPath
       clipPathUnits="userSpaceOnUse"
       id="clipPath140"><path
         d="m 1041.09,723.195 v 0 l 2.65,1.508 -2.65,-1.504"
         id="path138" /></clipPath><linearGradient
       x1="0"
       y1="0"
       x2="1"
       y2="0"
       gradientUnits="userSpaceOnUse"
       gradientTransform="matrix(-680.333,1e-7,-1e-7,-680.333,1232.47,843.453)"
       spreadMethod="pad"
       id="linearGradient150"><stop
         style="stop-opacity:1;stop-color:#c3b218"
         offset="0"
         id="stop142" /><stop
         style="stop-opacity:1;stop-color:#c6931a"
         offset="0.4087"
         id="stop144" /><stop
         style="stop-opacity:1;stop-color:#c97d1b"
         offset="0.7754"
         id="stop146" /><stop
         style="stop-opacity:1;stop-color:#c9741b"
         offset="1"
         id="stop148" /></linearGradient><clipPath
       clipPathUnits="userSpaceOnUse"
       id="clipPath160"><path
         d="m 601.52,481.879 c -9.735,0 -18.231,3.172 -24.852,9.152 l -0.012,-0.011 c -0.035,0.031 -0.074,0.058 -0.109,0.101 l -1.789,1.738 c -0.059,0.063 -0.117,0.121 -0.18,0.192 l 2.09,2.078 c 6.621,-5.969 15.113,-9.141 24.844,-9.141 9.508,0 20.203,3.032 31.492,9.442 l 408.116,231.89 2.62,-2.617 -2.65,-1.504 -408.086,-231.871 c -9.524,-5.406 -18.621,-8.418 -26.945,-9.226 -1.543,-0.153 -3.055,-0.223 -4.539,-0.223"
         id="path158" /></clipPath><linearGradient
       x1="0"
       y1="0"
       x2="1"
       y2="0"
       gradientUnits="userSpaceOnUse"
       gradientTransform="matrix(-639.884,-639.884,639.884,-639.884,979.213,778.936)"
       spreadMethod="pad"
       id="linearGradient166"><stop
         style="stop-opacity:1;stop-color:#cd2334"
         offset="0"
         id="stop162" /><stop
         style="stop-opacity:1;stop-color:#99164d"
         offset="1"
         id="stop164" /></linearGradient><clipPath
       clipPathUnits="userSpaceOnUse"
       id="clipPath178"><path
         d="m 574.574,493.051 v 0 c -8.176,8.66 -13.015,22.078 -13.015,39.5 v 4.097 c 0,-17.41 4.839,-30.847 13.015,-39.5 l 2.086,-2.007 -2.086,-2.09"
         id="path176" /></clipPath><linearGradient
       x1="0"
       y1="0"
       x2="1"
       y2="0"
       gradientUnits="userSpaceOnUse"
       gradientTransform="matrix(-471.863,-471.863,471.863,-471.863,894.098,1160.94)"
       spreadMethod="pad"
       id="linearGradient192"><stop
         style="stop-opacity:1;stop-color:#4688cf"
         offset="0"
         id="stop180" /><stop
         style="stop-opacity:1;stop-color:#4688cf"
         offset="0.00657445"
         id="stop182" /><stop
         style="stop-opacity:1;stop-color:#4aaae3"
         offset="0.2601"
         id="stop184" /><stop
         style="stop-opacity:1;stop-color:#4cbee4"
         offset="0.5122"
         id="stop186" /><stop
         style="stop-opacity:1;stop-color:#53c7df"
         offset="0.7604"
         id="stop188" /><stop
         style="stop-opacity:1;stop-color:#54c7dc"
         offset="1"
         id="stop190" /></linearGradient><clipPath
       clipPathUnits="userSpaceOnUse"
       id="clipPath202"><path
         d="m 574.578,493.051 h -0.004 v 0 l 2.086,2.09 0.008,-0.012 -2.09,-2.078"
         id="path200" /></clipPath><linearGradient
       x1="0"
       y1="0"
       x2="1"
       y2="0"
       gradientUnits="userSpaceOnUse"
       gradientTransform="matrix(-639.884,-639.884,639.884,-639.884,979.213,778.936)"
       spreadMethod="pad"
       id="linearGradient208"><stop
         style="stop-opacity:1;stop-color:#e12439"
         offset="0"
         id="stop204" /><stop
         style="stop-opacity:1;stop-color:#ab1556"
         offset="1"
         id="stop206" /></linearGradient><clipPath
       clipPathUnits="userSpaceOnUse"
       id="clipPath220"><path
         d="m 1043.74,724.703 v 0 l -2.62,2.617 140.19,79.66 c 17.81,10.118 27.8,23.157 29.47,36.454 0,-5.223 -1.25,-10.446 -3.73,-15.508 -4.5,-9.192 -13.08,-17.86 -25.74,-25.055 l -137.57,-78.168"
         id="path218" /></clipPath><linearGradient
       x1="0"
       y1="0"
       x2="1"
       y2="0"
       gradientUnits="userSpaceOnUse"
       gradientTransform="matrix(-680.333,1e-7,-1e-7,-680.333,1232.47,843.453)"
       spreadMethod="pad"
       id="linearGradient230"><stop
         style="stop-opacity:1;stop-color:#d8c411"
         offset="0"
         id="stop222" /><stop
         style="stop-opacity:1;stop-color:#dba114"
         offset="0.4087"
         id="stop224" /><stop
         style="stop-opacity:1;stop-color:#dd8917"
         offset="0.7754"
         id="stop226" /><stop
         style="stop-opacity:1;stop-color:#de7f18"
         offset="1"
         id="stop228" /></linearGradient><clipPath
       clipPathUnits="userSpaceOnUse"
       id="clipPath242"><path
         d="m 1210.78,843.488 c -1.67,13.321 -11.66,26.352 -29.47,36.469 l -140.19,79.652 2.61,2.614 0.01,-0.004 137.57,-78.168 c 19.63,-11.156 29.46,-25.856 29.47,-40.563"
         id="path240" /></clipPath><linearGradient
       x1="0"
       y1="0"
       x2="1"
       y2="0"
       gradientUnits="userSpaceOnUse"
       gradientTransform="matrix(-680.333,1e-7,-1e-7,-680.333,1232.47,843.453)"
       spreadMethod="pad"
       id="linearGradient252"><stop
         style="stop-opacity:1;stop-color:#f8ea27"
         offset="0"
         id="stop244" /><stop
         style="stop-opacity:1;stop-color:#fccb28"
         offset="0.4087"
         id="stop246" /><stop
         style="stop-opacity:1;stop-color:#fab42a"
         offset="0.7754"
         id="stop248" /><stop
         style="stop-opacity:1;stop-color:#f9ab2b"
         offset="1"
         id="stop250" /></linearGradient><clipPath
       clipPathUnits="userSpaceOnUse"
       id="clipPath264"><path
         d="m 561.559,1150.26 v 4.11 c 0,0.05 0,0.11 0.004,0.17 0,0 0,0.01 0,0.01 0,1.68 0.05,3.33 0.14,4.93 0,0.02 0,0.03 0.004,0.04 0,0.03 0.004,0.07 0.008,0.11 0,0.03 0,0.06 0.004,0.09 0,0.03 0.004,0.05 0.004,0.07 0.004,0.05 0.004,0.1 0.007,0.15 0,0.01 0,0.01 0,0.02 0.93,14.72 5.563,26.22 12.844,33.92 v 0 0 l 2.063,-2.06 c -9.438,-8.51 -15.078,-22.71 -15.078,-41.56 m 15,45.57 0.093,0.09 c -0.027,-0.03 -0.062,-0.06 -0.093,-0.09"
         id="path262" /></clipPath><linearGradient
       x1="0"
       y1="0"
       x2="1"
       y2="0"
       gradientUnits="userSpaceOnUse"
       gradientTransform="matrix(-471.863,-471.863,471.863,-471.863,894.098,1160.94)"
       spreadMethod="pad"
       id="linearGradient278"><stop
         style="stop-opacity:1;stop-color:#6cb7e8"
         offset="0"
         id="stop266" /><stop
         style="stop-opacity:1;stop-color:#6cb8e8"
         offset="0.00657445"
         id="stop268" /><stop
         style="stop-opacity:1;stop-color:#6cd0f6"
         offset="0.2601"
         id="stop270" /><stop
         style="stop-opacity:1;stop-color:#75d2f0"
         offset="0.5122"
         id="stop272" /><stop
         style="stop-opacity:1;stop-color:#7dd5eb"
         offset="0.7604"
         id="stop274" /><stop
         style="stop-opacity:1;stop-color:#7ed5e9"
         offset="1"
         id="stop276" /></linearGradient><clipPath
       clipPathUnits="userSpaceOnUse"
       id="clipPath288"><path
         d="M 1041.12,959.609 633.004,1191.49 c -11.309,6.42 -22.02,9.46 -31.547,9.46 -9.723,0 -18.207,-3.16 -24.82,-9.13 l -2.063,2.06 v 0 c 0.641,0.68 1.301,1.33 1.985,1.95 0.031,0.03 0.066,0.06 0.097,0.09 6.559,5.92 14.949,9.08 24.559,9.14 0.082,0 0.16,0 0.238,0 9.527,0 20.242,-3.04 31.551,-9.47 l 410.736,-233.363 -0.01,-0.004 -2.61,-2.614"
         id="path286" /></clipPath><linearGradient
       x1="0"
       y1="0"
       x2="1"
       y2="0"
       gradientUnits="userSpaceOnUse"
       gradientTransform="matrix(285.735,-285.735,285.735,285.735,486.341,1400.87)"
       spreadMethod="pad"
       id="linearGradient300"><stop
         style="stop-opacity:1;stop-color:#64bf8c"
         offset="0"
         id="stop290" /><stop
         style="stop-opacity:1;stop-color:#63c58c"
         offset="0.0685"
         id="stop292" /><stop
         style="stop-opacity:1;stop-color:#69c982"
         offset="0.4762"
         id="stop294" /><stop
         style="stop-opacity:1;stop-color:#6fcb7d"
         offset="0.8009"
         id="stop296" /><stop
         style="stop-opacity:1;stop-color:#70cb79"
         offset="1"
         id="stop298" /></linearGradient></defs><sodipodi:namedview
     pagecolor="#ffffff"
     bordercolor="#666666"
     borderopacity="1"
     objecttolerance="10"
     gridtolerance="10"
     guidetolerance="10"
     inkscape:pageopacity="0"
     inkscape:pageshadow="2"
     inkscape:window-width="640"
     inkscape:window-height="480"
     id="namedview4" /><g
     id="g10"
     inkscape:groupmode="layer"
     inkscape:label="ink_ext_XXXXXX"
     transform="matrix(1.3333333,0,0,-1.3333333,0,224.93333)"><g
       id="g12"
       transform="scale(0.1)"><path
         d="M 4358.06,0 H 0 V 1686.99 H 4358.06 V 0 M 281.168,421.738 v 0 c 0,-77.316 63.262,-140.578 140.582,-140.578 h 3514.57 c 77.32,0 140.58,63.262 140.58,140.578 v 843.502 0 0.01 c 0,77.32 -63.26,140.58 -140.58,140.58 H 421.75 c -77.32,0 -140.582,-63.26 -140.582,-140.58 v -843.5 0"
         style="fill:#ffffff;fill-opacity:1;fill-rule:nonzero;stroke:none"
         id="path14" /><path
         d="M 3936.32,281.172 H 421.75 c -77.32,0 -140.582,63.258 -140.582,140.578 v 843.5 c 0,77.32 63.262,140.58 140.582,140.58 h 3514.57 c 77.32,0 140.58,-63.26 140.58,-140.58 v -843.5 c 0,-77.32 -63.26,-140.578 -140.58,-140.578"
         style="fill:#100f0d;fill-opacity:1;fill-rule:nonzero;stroke:none"
         id="path16" /><path
         d="M 3936.32,1405.82 H 421.75 c -77.32,0 -140.582,-63.26 -140.582,-140.58 V 421.738 c 0,-77.316 63.262,-140.578 140.582,-140.578 h 3514.57 c 77.32,0 140.58,63.262 140.58,140.578 v 843.502 c 0,77.32 -63.26,140.58 -140.58,140.58 m 0,-22.48 c 65.11,0 118.08,-52.98 118.08,-118.1 V 421.738 c 0,-65.109 -52.97,-118.09 -118.08,-118.09 H 421.75 c -65.117,0 -118.09,52.981 -118.09,118.09 v 843.502 c 0,65.12 52.973,118.1 118.09,118.1 h 3514.57"
         style="fill:#a2a2a1;fill-opacity:1;fill-rule:nonzero;stroke:none"
         id="path18" /><path
         d="m 1614.41,1117.82 c 0,-23.56 -6.98,-42.32 -20.95,-56.31 -15.87,-16.64 -36.55,-24.96 -61.98,-24.96 -24.35,0 -45.05,8.43 -62.08,25.31 -17.05,16.89 -25.56,37.83 -25.56,62.8 0,24.99 8.51,45.91 25.56,62.8 17.03,16.88 37.73,25.33 62.08,25.33 12.09,0 23.65,-2.37 34.63,-7.08 10.98,-4.72 19.8,-10.99 26.39,-18.85 l -14.83,-14.84 c -11.17,13.35 -26.55,20.02 -46.19,20.02 -17.76,0 -33.11,-6.23 -46.07,-18.72 -12.96,-12.5 -19.44,-28.71 -19.44,-48.66 0,-19.95 6.48,-36.16 19.44,-48.66 12.96,-12.49 28.31,-18.72 46.07,-18.72 18.84,0 34.55,6.27 47.12,18.83 8.16,8.19 12.88,19.57 14.14,34.18 h -61.26 v 20.26 h 81.75 c 0.79,-4.41 1.18,-8.64 1.18,-12.73"
         style="fill:#ffffff;fill-opacity:1;fill-rule:nonzero;stroke:none"
         id="path20" /><path
         d="m 1614.41,1117.82 h -1 c -0.01,-23.37 -6.89,-41.82 -20.66,-55.61 l -0.01,-0.01 h -0.01 c -15.68,-16.44 -36.03,-24.64 -61.25,-24.65 -24.12,0.01 -44.51,8.31 -61.37,25.02 -16.87,16.72 -25.26,37.34 -25.27,62.09 0.01,24.76 8.4,45.37 25.27,62.08 16.86,16.72 37.25,25.03 61.37,25.05 11.96,0 23.38,-2.34 34.24,-6.99 10.86,-4.68 19.54,-10.86 26.01,-18.58 l 0.77,0.64 -0.71,0.71 -14.83,-14.84 0.71,-0.71 0.77,0.65 c -11.36,13.58 -27.1,20.38 -46.96,20.37 -17.99,0.01 -33.64,-6.35 -46.76,-19 -13.17,-12.68 -19.76,-29.22 -19.75,-49.38 -0.01,-20.16 6.58,-36.7 19.75,-49.37 13.12,-12.66 28.77,-19.02 46.76,-19.01 19.06,-0.01 35.08,6.38 47.83,19.13 8.36,8.38 13.16,20.02 14.43,34.79 l 0.09,1.09 h -61.35 v 18.26 h 80.75 v 1 l -0.99,-0.18 c 0.79,-4.35 1.17,-8.52 1.17,-12.55 h 1 1 c 0,4.16 -0.39,8.45 -1.2,12.91 l -0.15,0.82 h -83.58 v -22.26 h 62.26 v 1 l -0.99,0.08 c -1.26,-14.44 -5.9,-25.56 -13.86,-33.55 -12.4,-12.37 -27.79,-18.53 -46.41,-18.54 -17.52,0.01 -32.57,6.12 -45.37,18.44 -12.76,12.32 -19.13,28.2 -19.14,47.94 0.01,19.73 6.38,35.62 19.14,47.93 12.8,12.33 27.85,18.44 45.37,18.45 19.42,-0.01 34.43,-6.55 45.42,-19.66 l 0.7,-0.83 16.25,16.25 -0.59,0.71 c -6.7,7.99 -15.66,14.35 -26.75,19.12 -11.11,4.76 -22.81,7.16 -35.03,7.16 -24.58,0.01 -45.59,-8.56 -62.78,-25.63 -17.23,-17.05 -25.87,-38.29 -25.86,-63.5 -0.01,-25.2 8.63,-46.45 25.86,-63.51 17.19,-17.06 38.2,-25.61 62.78,-25.6 25.64,-0.01 46.65,8.42 62.7,25.27 l -0.72,0.69 0.7,-0.71 c 14.19,14.19 21.26,33.27 21.25,57.02 h -1"
         style="fill:#ffffff;fill-opacity:1;fill-rule:nonzero;stroke:none"
         id="path22" /><path
         d="m 1744.01,1188.28 h -76.83 v -53.49 h 69.28 v -20.26 h -69.28 v -53.49 h 76.83 v -20.73 h -98.49 v 168.7 h 98.49 v -20.73"
         style="fill:#ffffff;fill-opacity:1;fill-rule:nonzero;stroke:none"
         id="path24" /><path
         d="m 1744.01,1188.28 v 1 h -77.83 v -55.49 h 69.28 v -18.26 h -69.28 v -55.49 h 76.83 v -18.73 h -96.49 v 166.7 h 96.49 v -19.73 h 1 v 1 -1 h 1 v 21.73 h -100.49 v -170.7 h 100.49 v 22.73 h -76.83 v 51.49 h 69.28 v 22.26 h -69.28 v 51.49 h 76.83 v 1 h -1"
         style="fill:#ffffff;fill-opacity:1;fill-rule:nonzero;stroke:none"
         id="path26" /><path
         d="m 1835.41,1040.31 h -21.69 v 147.97 h -47.12 v 20.73 h 115.93 v -20.73 h -47.12 v -147.97"
         style="fill:#ffffff;fill-opacity:1;fill-rule:nonzero;stroke:none"
         id="path28" /><path
         d="m 1835.41,1040.31 v 1 h -20.69 v 147.97 h -47.12 v 18.73 h 113.93 v -18.73 h -47.12 v -148.97 h 1 v 1 -1 h 1 v 146.97 h 47.12 v 22.73 H 1765.6 v -22.73 h 47.12 v -147.97 h 23.69 v 1 h -1"
         style="fill:#ffffff;fill-opacity:1;fill-rule:nonzero;stroke:none"
         id="path30" /><path
         d="m 1966.41,1040.31 v 168.7 h 21.67 v -168.7 h -21.67"
         style="fill:#ffffff;fill-opacity:1;fill-rule:nonzero;stroke:none"
         id="path32" /><path
         d="m 1966.41,1040.31 h 1 v 167.7 h 19.67 v -166.7 h -20.67 v -1 h 1 -1 v -1 h 22.67 v 170.7 h -23.67 v -170.7 h 1 v 1"
         style="fill:#ffffff;fill-opacity:1;fill-rule:nonzero;stroke:none"
         id="path34" /><path
         d="m 2084.23,1040.31 h -21.69 v 147.97 h -47.11 v 20.73 h 115.92 v -20.73 h -47.12 v -147.97"
         style="fill:#ffffff;fill-opacity:1;fill-rule:nonzero;stroke:none"
         id="path36" /><path
         d="m 2084.23,1040.31 v 1 h -20.69 v 147.97 h -47.11 v 18.73 h 113.92 v -18.73 h -47.12 v -148.97 h 1 v 1 -1 h 1 v 146.97 h 47.12 v 22.73 h -117.92 v -22.73 h 47.11 v -147.97 h 23.69 v 1 h -1"
         style="fill:#ffffff;fill-opacity:1;fill-rule:nonzero;stroke:none"
         id="path38" /><path
         d="m 2243.12,1076.24 c 12.49,-12.65 27.76,-18.96 45.82,-18.96 18.07,0 33.36,6.31 45.83,18.96 12.49,12.64 18.75,28.79 18.75,48.42 0,19.63 -6.26,35.78 -18.75,48.42 -12.47,12.65 -27.76,18.96 -45.83,18.96 -18.06,0 -33.33,-6.31 -45.82,-18.96 -12.47,-12.64 -18.73,-28.79 -18.73,-48.42 0,-19.63 6.26,-35.78 18.73,-48.42 z m 107.69,-14.13 c -16.59,-17.05 -37.21,-25.56 -61.87,-25.56 -24.65,0 -45.27,8.51 -61.83,25.56 -16.59,17.04 -24.85,37.89 -24.85,62.55 0,24.66 8.26,45.51 24.85,62.55 16.56,17.05 37.18,25.58 61.83,25.58 24.52,0 45.09,-8.57 61.76,-25.69 16.64,-17.12 24.96,-37.93 24.96,-62.44 0,-24.66 -8.3,-45.51 -24.85,-62.55"
         style="fill:#ffffff;fill-opacity:1;fill-rule:nonzero;stroke:none"
         id="path40" /><path
         d="m 2243.12,1076.24 -0.71,-0.7 c 12.65,-12.83 28.23,-19.27 46.53,-19.26 18.3,-0.01 33.91,6.43 46.54,19.26 12.69,12.82 19.05,29.28 19.04,49.12 0.01,19.84 -6.35,36.3 -19.04,49.13 -12.63,12.82 -28.24,19.26 -46.54,19.25 -18.3,0.01 -33.88,-6.43 -46.53,-19.25 -12.66,-12.83 -19.03,-29.29 -19.02,-49.13 -0.01,-19.84 6.36,-36.3 19.01,-49.12 l 0.72,0.7 0.71,0.7 c -12.28,12.46 -18.43,28.3 -18.44,47.72 0.01,19.42 6.16,35.26 18.44,47.72 12.33,12.46 27.28,18.65 45.11,18.66 17.84,-0.01 32.82,-6.2 45.12,-18.66 12.3,-12.46 18.46,-28.3 18.46,-47.72 0,-19.42 -6.16,-35.26 -18.46,-47.72 -12.3,-12.46 -27.28,-18.65 -45.12,-18.66 -17.83,0.01 -32.78,6.2 -45.11,18.66 z m 107.69,-14.13 -0.72,0.7 c -16.42,-16.87 -36.72,-25.25 -61.15,-25.26 -24.43,0.01 -44.73,8.39 -61.11,25.26 -16.41,16.87 -24.56,37.41 -24.57,61.85 0.01,24.43 8.16,44.98 24.57,61.85 16.38,16.87 36.69,25.26 61.11,25.28 24.29,-0.02 44.54,-8.45 61.04,-25.39 16.46,-16.95 24.67,-37.46 24.68,-61.74 -0.01,-24.43 -8.19,-44.98 -24.57,-61.85 l 0.72,-0.7 0.71,-0.7 c 16.73,17.21 25.14,38.37 25.14,63.25 0,24.73 -8.43,45.85 -25.25,63.14 -16.83,17.3 -37.71,26 -62.47,25.99 -24.88,0.01 -45.82,-8.65 -62.55,-25.89 -16.76,-17.2 -25.14,-38.36 -25.13,-63.24 -0.01,-24.88 8.37,-46.04 25.13,-63.25 16.73,-17.23 37.67,-25.87 62.55,-25.86 24.89,-0.01 45.83,8.63 62.58,25.86 l -0.71,0.7"
         style="fill:#ffffff;fill-opacity:1;fill-rule:nonzero;stroke:none"
         id="path42" /><path
         d="m 2406.08,1040.31 v 168.7 h 26.38 l 81.99,-131.24 h 0.94 l -0.94,32.52 v 98.72 h 21.69 v -168.7 h -22.62 l -85.78,137.59 h -0.93 l 0.93,-32.51 v -105.08 h -21.66"
         style="fill:#ffffff;fill-opacity:1;fill-rule:nonzero;stroke:none"
         id="path44" /><path
         d="m 2406.08,1040.31 h 1 v 167.7 h 24.83 l 81.99,-131.24 h 1.49 1.03 l -0.97,33.53 v 97.71 h 19.69 v -166.7 h -21.07 l -85.77,137.59 h -1.49 -1.03 l 0.96,-33.52 v -104.07 h -20.66 v -1 h 1 -1 v -1 h 22.66 v 106.09 l -0.93,32.53 -1,-0.03 v -1 h 0.38 l 85.77,-137.59 h 24.18 v 170.7 h -23.69 v -99.74 l 0.94,-32.52 1,0.02 v 1 h -0.38 l -81.99,131.24 h -27.94 v -170.7 h 1 v 1"
         style="fill:#ffffff;fill-opacity:1;fill-rule:nonzero;stroke:none"
         id="path46" /><path
         d="m 3287.85,562.328 h 52.45 V 913.82 h -52.45 z m 472.55,224.875 -60.14,-152.394 h -1.81 l -62.41,152.394 h -56.52 l 93.6,-212.984 -53.36,-118.481 h 54.72 l 144.25,331.465 z M 3462.85,602.25 c -17.19,0 -41.15,8.59 -41.15,29.852 0,27.128 29.84,37.527 55.62,37.527 23.06,0 33.91,-4.969 47.93,-11.758 -4.07,-32.551 -32.1,-55.621 -62.4,-55.621 z m 6.33,192.641 c -37.99,0 -77.33,-16.731 -93.61,-53.813 l 46.58,-19.445 c 9.95,19.445 28.49,25.777 47.93,25.777 27.14,0 54.72,-16.277 55.17,-45.219 v -3.617 c -9.49,5.426 -29.84,13.567 -54.71,13.567 -50.2,0 -101.3,-27.59 -101.3,-79.141 0,-47.031 41.15,-77.32 87.28,-77.32 35.27,0 54.71,15.82 66.93,34.359 h 1.8 V 562.91 h 50.65 v 134.758 c 0,62.402 -46.58,97.223 -106.72,97.223 z m -324.23,-50.477 h -74.61 v 120.488 h 74.61 c 39.22,0 61.5,-32.476 61.5,-60.242 0,-27.242 -22.28,-60.246 -61.5,-60.246 z m -1.36,169.406 H 3017.88 V 562.328 h 52.46 v 133.168 h 73.25 c 58.16,0 115.32,42.102 115.32,109.164 0,67.063 -57.16,109.16 -115.32,109.16 z M 2458.08,602.191 c -36.23,0 -66.58,30.348 -66.58,72.02 0,42.125 30.35,72.926 66.58,72.926 35.79,0 63.87,-30.801 63.87,-72.926 0,-41.672 -28.08,-72.02 -63.87,-72.02 z m 60.25,165.329 h -1.81 c -11.78,14.043 -34.43,26.726 -62.97,26.726 -59.79,0 -114.6,-52.547 -114.6,-120.035 0,-67.039 54.81,-119.133 114.6,-119.133 28.54,0 51.19,12.684 62.97,27.184 h 1.81 v -17.223 c 0,-45.75 -24.46,-70.211 -63.87,-70.211 -32.16,0 -52.09,23.102 -60.24,42.582 l -45.76,-19.019 c 13.14,-31.711 48.02,-70.672 106,-70.672 61.6,0 113.7,36.242 113.7,124.57 V 787 h -49.83 z m 86.06,-205.192 h 52.55 v 351.5 h -52.55 z m 130.01,115.953 c -1.36,46.207 35.78,69.762 62.5,69.762 20.84,0 38.51,-10.418 44.4,-25.367 z m 163.06,39.867 c -9.96,26.723 -40.31,76.098 -102.37,76.098 -61.6,0 -112.78,-48.469 -112.78,-119.586 0,-67.039 50.73,-119.582 118.67,-119.582 54.81,0 86.52,33.524 99.65,52.992 l -40.76,27.18 c -13.59,-19.93 -32.16,-33.059 -58.89,-33.059 -26.72,0 -45.75,12.231 -57.98,36.231 l 159.9,66.133 z m -1273.91,39.407 v -50.731 h 121.4 c -3.63,-28.543 -13.13,-49.375 -27.63,-63.875 -17.67,-17.66 -45.3,-37.14 -93.77,-37.14 -74.74,0 -133.17,60.25 -133.17,134.988 0,74.738 58.43,134.984 133.17,134.984 40.32,0 69.76,-15.855 91.5,-36.238 l 35.79,35.785 c -30.35,28.988 -70.66,51.188 -127.29,51.188 -102.37,0 -188.43,-83.352 -188.43,-185.719 0,-102.375 86.06,-185.719 188.43,-185.719 55.27,0 96.94,18.121 129.55,52.094 33.52,33.519 43.94,80.625 43.94,118.676 0,11.777 -0.9,22.644 -2.72,31.707 z m 311.5,-155.364 c -36.24,0 -67.49,29.891 -67.49,72.469 0,43.035 31.25,72.477 67.49,72.477 36.24,0 67.49,-29.442 67.49,-72.477 0,-42.578 -31.25,-72.469 -67.49,-72.469 z m 0,192.055 c -66.14,0 -120.04,-50.277 -120.04,-119.586 0,-68.851 53.9,-119.582 120.04,-119.582 66.13,0 120.03,50.731 120.03,119.582 0,69.309 -53.9,119.586 -120.03,119.586 z m 261.86,-192.055 c -36.24,0 -67.49,29.891 -67.49,72.469 0,43.035 31.25,72.477 67.49,72.477 36.24,0 67.49,-29.442 67.49,-72.477 0,-42.578 -31.25,-72.469 -67.49,-72.469 z m 0,192.055 c -66.14,0 -120.04,-50.277 -120.04,-119.586 0,-68.851 53.9,-119.582 120.04,-119.582 66.13,0 120.04,50.731 120.04,119.582 0,69.309 -53.91,119.586 -120.04,119.586"
         style="fill:#ffffff;fill-opacity:1;fill-rule:nonzero;stroke:none"
         id="path48" /><g
         id="g50"><g
           id="g52"
           clip-path="url(#clipPath56)"><path
             d="m 576.66,495.141 -2.086,2.007 c -8.176,8.653 -13.015,22.09 -13.015,39.5 v -4.097 0 621.829 c 0,0.05 0,0.1 0.004,0.16 -0.004,-0.06 -0.004,-0.12 -0.004,-0.17 v -4.11 c 0,18.85 5.64,33.05 15.078,41.56 L 924.988,843.465 576.66,495.141 m -15.097,659.409 c 0,1.68 0.05,3.33 0.14,4.93 -0.09,-1.6 -0.14,-3.25 -0.14,-4.93 m 0.144,4.97 c 0,0.03 0.004,0.07 0.008,0.11 -0.004,-0.04 -0.008,-0.08 -0.008,-0.11 m 0.012,0.2 c 0,0.03 0.004,0.05 0.004,0.07 0,-0.02 -0.004,-0.04 -0.004,-0.07 m 0.011,0.22 c 0,0.01 0,0.01 0,0.02 0,-0.01 0,-0.01 0,-0.02"
             style="fill:url(#linearGradient70);fill-opacity:1;fill-rule:nonzero;stroke:none"
             id="path72" /></g></g><g
         id="g74"><g
           id="g76"
           clip-path="url(#clipPath80)"><path
             d="m 1041.09,723.195 v 0 l 2.65,1.508 137.57,78.168 c 12.66,7.195 21.24,15.863 25.74,25.055 -4.5,-9.199 -13.08,-17.871 -25.74,-25.071 l -137.57,-78.164 -2.65,-1.496 m 0.03,4.125 -116.132,116.145 116.132,116.144 140.19,-79.652 c 17.81,-10.117 27.8,-23.148 29.47,-36.469 0,-0.019 0,-0.039 0,-0.054 -1.67,-13.297 -11.66,-26.336 -29.47,-36.454 l -140.19,-79.66"
             style="fill:url(#linearGradient90);fill-opacity:1;fill-rule:nonzero;stroke:none"
             id="path92" /></g></g><g
         id="g94"><g
           id="g96"
           clip-path="url(#clipPath100)"><path
             d="m 601.492,481.879 c -9.726,0 -18.215,3.172 -24.836,9.141 l 0.012,0.011 c 6.621,-5.98 15.117,-9.152 24.852,-9.152 1.484,0 2.996,0.07 4.539,0.223 -1.551,-0.153 -3.075,-0.223 -4.567,-0.223 m 0.02,4.109 c -9.731,0 -18.223,3.172 -24.844,9.141 v 0 l -0.008,0.012 348.328,348.324 116.132,-116.145 v 0 L 633.004,495.43 c -11.289,-6.41 -21.984,-9.442 -31.492,-9.442 m -24.965,5.133 c -0.613,0.551 -1.207,1.129 -1.789,1.738 l 1.789,-1.738"
             style="fill:url(#linearGradient106);fill-opacity:1;fill-rule:nonzero;stroke:none"
             id="path108" /></g></g><g
         id="g110"><g
           id="g112"
           clip-path="url(#clipPath116)"><path
             d="m 924.988,843.465 v 0 L 576.637,1191.82 c 6.613,5.97 15.097,9.13 24.82,9.13 9.527,0 20.238,-3.04 31.547,-9.46 L 1041.12,959.609 924.988,843.465 M 1043.74,962.227 633.004,1195.59 c -11.309,6.43 -22.024,9.47 -31.551,9.47 -0.078,0 -0.156,0 -0.238,0 0.094,0 0.183,0 0.277,0 9.512,0 20.215,-3.04 31.512,-9.45 L 1043.74,962.23"
             style="fill:url(#linearGradient128);fill-opacity:1;fill-rule:nonzero;stroke:none"
             id="path130" /></g></g><path
         d="m 606.059,482.102 c 8.324,0.808 17.421,3.82 26.945,9.226 l 408.086,231.871 v -0.004 L 633.004,491.328 c -9.524,-5.418 -18.621,-8.418 -26.945,-9.226 m -29.407,8.91 -0.105,0.109 c 0.035,-0.043 0.074,-0.07 0.109,-0.101 l -0.004,-0.008 m -1.894,1.847 -0.184,0.18 0.004,0.012 c 0.063,-0.071 0.121,-0.129 0.18,-0.192"
         style="fill:#100f0d;fill-opacity:1;fill-rule:nonzero;stroke:none"
         id="path132" /><g
         id="g134"><g
           id="g136"
           clip-path="url(#clipPath140)"><path
             d="m 1041.09,723.195 v 0 l 2.65,1.508 -2.65,-1.504"
             style="fill:url(#linearGradient150);fill-opacity:1;fill-rule:nonzero;stroke:none"
             id="path152" /></g></g><g
         id="g154"><g
           id="g156"
           clip-path="url(#clipPath160)"><path
             d="m 601.52,481.879 c -9.735,0 -18.231,3.172 -24.852,9.152 l -0.012,-0.011 c -0.035,0.031 -0.074,0.058 -0.109,0.101 l -1.789,1.738 c -0.059,0.063 -0.117,0.121 -0.18,0.192 l 2.09,2.078 c 6.621,-5.969 15.113,-9.141 24.844,-9.141 9.508,0 20.203,3.032 31.492,9.442 l 408.116,231.89 2.62,-2.617 -2.65,-1.504 -408.086,-231.871 c -9.524,-5.406 -18.621,-8.418 -26.945,-9.226 -1.543,-0.153 -3.055,-0.223 -4.539,-0.223"
             style="fill:url(#linearGradient166);fill-opacity:1;fill-rule:nonzero;stroke:none"
             id="path168" /></g></g><path
         d="m 574.574,493.039 c -8.176,8.66 -13.015,22.09 -13.015,39.5 v 0.012 c 0,-17.422 4.839,-30.84 13.015,-39.5 v 0 h 0.004 l -0.004,-0.012"
         style="fill:#100f0d;fill-opacity:1;fill-rule:nonzero;stroke:none"
         id="path170" /><g
         id="g172"><g
           id="g174"
           clip-path="url(#clipPath178)"><path
             d="m 574.574,493.051 v 0 c -8.176,8.66 -13.015,22.078 -13.015,39.5 v 4.097 c 0,-17.41 4.839,-30.847 13.015,-39.5 l 2.086,-2.007 -2.086,-2.09"
             style="fill:url(#linearGradient192);fill-opacity:1;fill-rule:nonzero;stroke:none"
             id="path194" /></g></g><g
         id="g196"><g
           id="g198"
           clip-path="url(#clipPath202)"><path
             d="m 574.578,493.051 h -0.004 v 0 l 2.086,2.09 0.008,-0.012 -2.09,-2.078"
             style="fill:url(#linearGradient208);fill-opacity:1;fill-rule:nonzero;stroke:none"
             id="path210" /></g></g><path
         d="m 1207.05,827.926 c 2.48,5.062 3.73,10.285 3.73,15.508 0,0.007 0,0.011 0,0.019 0,-5.226 -1.24,-10.457 -3.73,-15.527"
         style="fill:#100f0d;fill-opacity:1;fill-rule:nonzero;stroke:none"
         id="path212" /><g
         id="g214"><g
           id="g216"
           clip-path="url(#clipPath220)"><path
             d="m 1043.74,724.703 v 0 l -2.62,2.617 140.19,79.66 c 17.81,10.118 27.8,23.157 29.47,36.454 0,-5.223 -1.25,-10.446 -3.73,-15.508 -4.5,-9.192 -13.08,-17.86 -25.74,-25.055 l -137.57,-78.168"
             style="fill:url(#linearGradient230);fill-opacity:1;fill-rule:nonzero;stroke:none"
             id="path232" /></g></g><path
         d="m 1210.78,843.465 c 0,0.008 0,0.015 0,0.023 -0.01,14.707 -9.84,29.407 -29.47,40.563 l -137.57,78.168 -0.01,0.004 0.01,0.007 137.57,-78.167 c 19.65,-11.161 29.49,-25.887 29.47,-40.598"
         style="fill:#3a3a3b;fill-opacity:1;fill-rule:nonzero;stroke:none"
         id="path234" /><g
         id="g236"><g
           id="g238"
           clip-path="url(#clipPath242)"><path
             d="m 1210.78,843.488 c -1.67,13.321 -11.66,26.352 -29.47,36.469 l -140.19,79.652 2.61,2.614 0.01,-0.004 137.57,-78.168 c 19.63,-11.156 29.46,-25.856 29.47,-40.563"
             style="fill:url(#linearGradient252);fill-opacity:1;fill-rule:nonzero;stroke:none"
             id="path254" /></g></g><path
         d="m 561.563,1154.54 c 0,0 0,0.01 0,0.01 0,0 0,-0.01 0,-0.01 m 0.14,4.94 c 0,0.02 0,0.02 0.004,0.04 -0.004,-0.01 -0.004,-0.02 -0.004,-0.04 m 0.012,0.15 c 0,0.03 0,0.06 0.004,0.09 -0.004,-0.03 -0.004,-0.06 -0.004,-0.09 m 0.008,0.16 c 0.004,0.05 0.004,0.1 0.007,0.15 -0.003,-0.05 -0.003,-0.1 -0.007,-0.15 m 0.007,0.17 c 1.793,28.52 17.43,44.98 39.485,45.1 -9.61,-0.06 -18,-3.22 -24.559,-9.14 h -0.004 l -0.093,-0.09 c -0.684,-0.62 -1.344,-1.27 -1.985,-1.95 v 0 c -7.281,-7.7 -11.914,-19.2 -12.844,-33.92"
         style="fill:#3a3a3b;fill-opacity:1;fill-rule:nonzero;stroke:none"
         id="path256" /><g
         id="g258"><g
           id="g260"
           clip-path="url(#clipPath264)"><path
             d="m 561.559,1150.26 v 4.11 c 0,0.05 0,0.11 0.004,0.17 0,0 0,0.01 0,0.01 0,1.68 0.05,3.33 0.14,4.93 0,0.02 0,0.03 0.004,0.04 0,0.03 0.004,0.07 0.008,0.11 0,0.03 0,0.06 0.004,0.09 0,0.03 0.004,0.05 0.004,0.07 0.004,0.05 0.004,0.1 0.007,0.15 0,0.01 0,0.01 0,0.02 0.93,14.72 5.563,26.22 12.844,33.92 v 0 0 l 2.063,-2.06 c -9.438,-8.51 -15.078,-22.71 -15.078,-41.56 m 15,45.57 0.093,0.09 c -0.027,-0.03 -0.062,-0.06 -0.093,-0.09"
             style="fill:url(#linearGradient278);fill-opacity:1;fill-rule:nonzero;stroke:none"
             id="path280" /></g></g><g
         id="g282"><g
           id="g284"
           clip-path="url(#clipPath288)"><path
             d="M 1041.12,959.609 633.004,1191.49 c -11.309,6.42 -22.02,9.46 -31.547,9.46 -9.723,0 -18.207,-3.16 -24.82,-9.13 l -2.063,2.06 v 0 c 0.641,0.68 1.301,1.33 1.985,1.95 0.031,0.03 0.066,0.06 0.097,0.09 6.559,5.92 14.949,9.08 24.559,9.14 0.082,0 0.16,0 0.238,0 9.527,0 20.242,-3.04 31.551,-9.47 l 410.736,-233.363 -0.01,-0.004 -2.61,-2.614"
             style="fill:url(#linearGradient300);fill-opacity:1;fill-rule:nonzero;stroke:none"
             id="path302" /></g></g></g></g></svg>
